STARTFONT 2.1
COMMENT 
COMMENT This file has been produced by ttf2bdf written by Subhabrata Biswas
COMMENT 
COMMENT For comments, questions, bug reports, send a mail to
COMMENT                                           subhabrata.biswas@usa.net
COMMENT 
FONT -*-Aqua Grotesque-Medium-R-Normal--19-140-96-96-c-12--fontspecific
SIZE 14 96 96
FONTBOUNDINGBOX 19 24 0 -7
STARTPROPERTIES 15
FOUNDRY "Misc"
FAMILY_NAME "Aqua Grotesque"
WEIGHT_NAME "Medium"
SLANT "R"
SETWIDTH_NAME "Normal"
PIXEL_SIZE 9
POINT_SIZE 140
RESOLUTION_X 96
RESOLUTION_Y 96
SPACING "C"
CHARSET_ENCODING "fontspecific"
FONT_ASCENT 17
FONT_DESCENT 7
DEFAULT_CHAR 1
COPYRIGHT "You may wish to put your copyright here"
ENDPROPERTIES
CHARS 255
STARTCHAR C0001
ENCODING 1
SWIDTH 535 0
DWIDTH 10 0
BBX 1 1 0 -1
BITMAP
00
ENDCHAR
STARTCHAR C0002
ENCODING 2
SWIDTH 535 0
DWIDTH 10 0
BBX 1 1 0 -1
BITMAP
00
ENDCHAR
STARTCHAR C0003
ENCODING 3
SWIDTH 535 0
DWIDTH 10 0
BBX 1 1 0 -1
BITMAP
00
ENDCHAR
STARTCHAR C0004
ENCODING 4
SWIDTH 535 0
DWIDTH 10 0
BBX 1 1 0 -1
BITMAP
00
ENDCHAR
STARTCHAR C0005
ENCODING 5
SWIDTH 535 0
DWIDTH 10 0
BBX 1 1 0 -1
BITMAP
00
ENDCHAR
STARTCHAR C0006
ENCODING 6
SWIDTH 535 0
DWIDTH 10 0
BBX 1 1 0 -1
BITMAP
00
ENDCHAR
STARTCHAR C0007
ENCODING 7
SWIDTH 535 0
DWIDTH 10 0
BBX 1 1 0 -1
BITMAP
00
ENDCHAR
STARTCHAR C0008
ENCODING 8
SWIDTH 535 0
DWIDTH 10 0
BBX 1 1 0 -1
BITMAP
00
ENDCHAR
STARTCHAR C0009
ENCODING 9
SWIDTH 535 0
DWIDTH 10 0
BBX 1 1 0 -1
BITMAP
00
ENDCHAR
STARTCHAR C0010
ENCODING 10
SWIDTH 535 0
DWIDTH 10 0
BBX 1 1 0 -1
BITMAP
00
ENDCHAR
STARTCHAR C0011
ENCODING 11
SWIDTH 535 0
DWIDTH 10 0
BBX 1 1 0 -1
BITMAP
00
ENDCHAR
STARTCHAR C0012
ENCODING 12
SWIDTH 535 0
DWIDTH 10 0
BBX 1 1 0 -1
BITMAP
00
ENDCHAR
STARTCHAR C0013
ENCODING 13
SWIDTH 535 0
DWIDTH 10 0
BBX 1 1 0 -1
BITMAP
00
ENDCHAR
STARTCHAR C0014
ENCODING 14
SWIDTH 535 0
DWIDTH 10 0
BBX 1 1 0 -1
BITMAP
00
ENDCHAR
STARTCHAR C0015
ENCODING 15
SWIDTH 535 0
DWIDTH 10 0
BBX 1 1 0 -1
BITMAP
00
ENDCHAR
STARTCHAR C0016
ENCODING 16
SWIDTH 535 0
DWIDTH 10 0
BBX 1 1 0 -1
BITMAP
00
ENDCHAR
STARTCHAR C0017
ENCODING 17
SWIDTH 535 0
DWIDTH 10 0
BBX 1 1 0 -1
BITMAP
00
ENDCHAR
STARTCHAR C0018
ENCODING 18
SWIDTH 535 0
DWIDTH 10 0
BBX 1 1 0 -1
BITMAP
00
ENDCHAR
STARTCHAR C0019
ENCODING 19
SWIDTH 535 0
DWIDTH 10 0
BBX 1 1 0 -1
BITMAP
00
ENDCHAR
STARTCHAR C0020
ENCODING 20
SWIDTH 535 0
DWIDTH 10 0
BBX 1 1 0 -1
BITMAP
00
ENDCHAR
STARTCHAR C0021
ENCODING 21
SWIDTH 535 0
DWIDTH 10 0
BBX 1 1 0 -1
BITMAP
00
ENDCHAR
STARTCHAR C0022
ENCODING 22
SWIDTH 535 0
DWIDTH 10 0
BBX 1 1 0 -1
BITMAP
00
ENDCHAR
STARTCHAR C0023
ENCODING 23
SWIDTH 535 0
DWIDTH 10 0
BBX 1 1 0 -1
BITMAP
00
ENDCHAR
STARTCHAR C0024
ENCODING 24
SWIDTH 535 0
DWIDTH 10 0
BBX 1 1 0 -1
BITMAP
00
ENDCHAR
STARTCHAR C0025
ENCODING 25
SWIDTH 535 0
DWIDTH 10 0
BBX 1 1 0 -1
BITMAP
00
ENDCHAR
STARTCHAR C0026
ENCODING 26
SWIDTH 535 0
DWIDTH 10 0
BBX 1 1 0 -1
BITMAP
00
ENDCHAR
STARTCHAR C0027
ENCODING 27
SWIDTH 535 0
DWIDTH 10 0
BBX 1 1 0 -1
BITMAP
00
ENDCHAR
STARTCHAR C0028
ENCODING 28
SWIDTH 535 0
DWIDTH 10 0
BBX 1 1 0 -1
BITMAP
00
ENDCHAR
STARTCHAR C0029
ENCODING 29
SWIDTH 535 0
DWIDTH 10 0
BBX 1 1 0 -1
BITMAP
00
ENDCHAR
STARTCHAR C0030
ENCODING 30
SWIDTH 535 0
DWIDTH 10 0
BBX 1 1 0 -1
BITMAP
00
ENDCHAR
STARTCHAR C0031
ENCODING 31
SWIDTH 535 0
DWIDTH 10 0
BBX 1 1 0 -1
BITMAP
00
ENDCHAR
STARTCHAR C0032- 
ENCODING 32
SWIDTH 535 0
DWIDTH 10 0
BBX 1 1 0 -1
BITMAP
00
ENDCHAR
STARTCHAR C0033-!
ENCODING 33
SWIDTH 267 0
DWIDTH 5 0
BBX 2 14 2 0
BITMAP
C0
C0
C0
C0
C0
C0
C0
C0
C0
C0
C0
00
C0
C0
ENDCHAR
STARTCHAR C0034-"
ENCODING 34
SWIDTH 535 0
DWIDTH 10 0
BBX 1 1 0 -1
BITMAP
00
ENDCHAR
STARTCHAR C0035-#
ENCODING 35
SWIDTH 535 0
DWIDTH 10 0
BBX 1 1 0 -1
BITMAP
00
ENDCHAR
STARTCHAR C0036-$
ENCODING 36
SWIDTH 535 0
DWIDTH 10 0
BBX 1 1 0 -1
BITMAP
00
ENDCHAR
STARTCHAR C0037-%
ENCODING 37
SWIDTH 535 0
DWIDTH 10 0
BBX 1 1 0 -1
BITMAP
00
ENDCHAR
STARTCHAR C0038-&
ENCODING 38
SWIDTH 535 0
DWIDTH 10 0
BBX 1 1 0 -1
BITMAP
00
ENDCHAR
STARTCHAR C0039-'
ENCODING 39
SWIDTH 535 0
DWIDTH 10 0
BBX 1 1 0 -1
BITMAP
00
ENDCHAR
STARTCHAR C0040-(
ENCODING 40
SWIDTH 535 0
DWIDTH 10 0
BBX 1 1 0 -1
BITMAP
00
ENDCHAR
STARTCHAR C0041-)
ENCODING 41
SWIDTH 535 0
DWIDTH 10 0
BBX 1 1 0 -1
BITMAP
00
ENDCHAR
STARTCHAR C0042-*
ENCODING 42
SWIDTH 535 0
DWIDTH 10 0
BBX 1 1 0 -1
BITMAP
00
ENDCHAR
STARTCHAR C0043-+
ENCODING 43
SWIDTH 535 0
DWIDTH 10 0
BBX 1 1 0 -1
BITMAP
00
ENDCHAR
STARTCHAR C0044-,
ENCODING 44
SWIDTH 535 0
DWIDTH 10 0
BBX 1 1 0 -1
BITMAP
00
ENDCHAR
STARTCHAR C0045--
ENCODING 45
SWIDTH 428 0
DWIDTH 8 0
BBX 6 2 1 4
BITMAP
FC
FC
ENDCHAR
STARTCHAR C0046-.
ENCODING 46
SWIDTH 267 0
DWIDTH 5 0
BBX 2 2 2 0
BITMAP
C0
C0
ENDCHAR
STARTCHAR C0047-/
ENCODING 47
SWIDTH 589 0
DWIDTH 11 0
BBX 8 14 1 0
BITMAP
03
03
06
06
0E
0C
0C
18
18
38
30
30
60
E0
ENDCHAR
STARTCHAR C0048-0
ENCODING 48
SWIDTH 750 0
DWIDTH 14 0
BBX 10 14 2 0
BITMAP
1E00
3F00
6180
6180
C0C0
C0C0
C0C0
C0C0
C0C0
C0C0
6180
6180
3F00
1E00
ENDCHAR
STARTCHAR C0049-1
ENCODING 49
SWIDTH 375 0
DWIDTH 7 0
BBX 4 14 1 0
BITMAP
F0
F0
30
30
30
30
30
30
30
30
30
30
30
30
ENDCHAR
STARTCHAR C0050-2
ENCODING 50
SWIDTH 642 0
DWIDTH 12 0
BBX 8 14 2 0
BITMAP
3C
7E
E7
C3
03
03
06
0C
0C
18
30
20
7F
FF
ENDCHAR
STARTCHAR C0051-3
ENCODING 51
SWIDTH 696 0
DWIDTH 13 0
BBX 10 14 1 0
BITMAP
7F80
7F00
0300
0600
0600
0F00
0B80
01C0
00C0
00C0
E0C0
6180
3F80
1E00
ENDCHAR
STARTCHAR C0052-4
ENCODING 52
SWIDTH 750 0
DWIDTH 14 0
BBX 11 14 2 0
BITMAP
0080
0080
0180
0380
0380
0780
0F80
0D80
1980
3180
7180
7FE0
FFE0
0180
ENDCHAR
STARTCHAR C0053-5
ENCODING 53
SWIDTH 642 0
DWIDTH 12 0
BBX 9 14 1 0
BITMAP
3F00
3F00
2000
2000
7C00
7F00
4700
0180
0180
0180
0180
4300
FF00
3C00
ENDCHAR
STARTCHAR C0054-6
ENCODING 54
SWIDTH 642 0
DWIDTH 12 0
BBX 8 14 2 0
BITMAP
06
0C
18
18
30
3C
7E
67
C3
C3
C3
E7
7E
3C
ENDCHAR
STARTCHAR C0055-7
ENCODING 55
SWIDTH 642 0
DWIDTH 12 0
BBX 10 14 1 0
BITMAP
FFC0
FF80
0180
0300
0300
0600
0600
0C00
0C00
1800
1800
3000
7000
6000
ENDCHAR
STARTCHAR C0056-8
ENCODING 56
SWIDTH 642 0
DWIDTH 12 0
BBX 8 14 2 0
BITMAP
3C
7E
E7
C3
C3
E7
7E
7E
E7
C3
C3
E7
7E
3C
ENDCHAR
STARTCHAR C0057-9
ENCODING 57
SWIDTH 642 0
DWIDTH 12 0
BBX 8 14 2 0
BITMAP
3C
7E
E7
C3
C3
C3
E6
7E
3C
0C
18
18
30
60
ENDCHAR
STARTCHAR C0058-:
ENCODING 58
SWIDTH 535 0
DWIDTH 10 0
BBX 1 1 0 -1
BITMAP
00
ENDCHAR
STARTCHAR C0059-;
ENCODING 59
SWIDTH 535 0
DWIDTH 10 0
BBX 1 1 0 -1
BITMAP
00
ENDCHAR
STARTCHAR C0060-<
ENCODING 60
SWIDTH 482 0
DWIDTH 9 0
BBX 6 10 1 0
BITMAP
04
0C
1C
38
70
F0
38
1C
0C
04
ENDCHAR
STARTCHAR C0061-=
ENCODING 61
SWIDTH 535 0
DWIDTH 10 0
BBX 1 1 0 -1
BITMAP
00
ENDCHAR
STARTCHAR C0062->
ENCODING 62
SWIDTH 482 0
DWIDTH 9 0
BBX 6 10 1 0
BITMAP
40
60
F0
38
1C
1C
38
70
E0
40
ENDCHAR
STARTCHAR C0063-?
ENCODING 63
SWIDTH 642 0
DWIDTH 12 0
BBX 9 14 1 0
BITMAP
3E00
7F00
E380
4180
0180
0180
0300
0F00
0C00
0C00
0C00
0000
0C00
0C00
ENDCHAR
STARTCHAR C0064-@
ENCODING 64
SWIDTH 535 0
DWIDTH 10 0
BBX 1 1 0 -1
BITMAP
00
ENDCHAR
STARTCHAR C0065-A
ENCODING 65
SWIDTH 750 0
DWIDTH 14 0
BBX 12 14 1 0
BITMAP
0400
0200
0600
0700
0F00
0D00
0980
1980
18C0
30C0
30C0
3FE0
7FE0
E030
ENDCHAR
STARTCHAR C0066-B
ENCODING 66
SWIDTH 696 0
DWIDTH 13 0
BBX 9 14 2 0
BITMAP
FE00
FF00
C380
C180
C180
C380
FF00
FF00
C380
C180
C180
C380
FF00
FE00
ENDCHAR
STARTCHAR C0067-C
ENCODING 67
SWIDTH 803 0
DWIDTH 15 0
BBX 12 14 2 0
BITMAP
0F80
1FE0
3870
6030
E000
C000
C000
C000
C000
E000
6030
3870
1FE0
0F80
ENDCHAR
STARTCHAR C0068-D
ENCODING 68
SWIDTH 803 0
DWIDTH 15 0
BBX 11 14 2 0
BITMAP
FE00
FF80
C380
C0C0
C0E0
C060
C060
C060
C060
C0E0
C0C0
C3C0
FF80
FE00
ENDCHAR
STARTCHAR C0069-E
ENCODING 69
SWIDTH 589 0
DWIDTH 11 0
BBX 8 14 2 0
BITMAP
FF
FF
C0
C0
C0
C0
C0
FE
FE
C0
C0
C0
FF
FF
ENDCHAR
STARTCHAR C0070-F
ENCODING 70
SWIDTH 589 0
DWIDTH 11 0
BBX 8 14 2 0
BITMAP
FF
FF
C0
C0
C0
C0
C0
FE
FE
C0
C0
C0
C0
C0
ENDCHAR
STARTCHAR C0071-G
ENCODING 71
SWIDTH 910 0
DWIDTH 17 0
BBX 14 14 2 0
BITMAP
0F80
1FE0
3870
6038
E000
C000
C1FC
C1FC
C01C
E018
6038
3870
1FE0
0F80
ENDCHAR
STARTCHAR C0072-H
ENCODING 72
SWIDTH 696 0
DWIDTH 13 0
BBX 9 14 2 0
BITMAP
C180
C180
C180
C180
C180
C180
C180
C180
FF80
FF80
C180
C180
C180
C180
ENDCHAR
STARTCHAR C0073-I
ENCODING 73
SWIDTH 267 0
DWIDTH 5 0
BBX 2 14 2 0
BITMAP
C0
C0
C0
C0
C0
C0
C0
C0
C0
C0
C0
C0
C0
C0
ENDCHAR
STARTCHAR C0074-J
ENCODING 74
SWIDTH 535 0
DWIDTH 10 0
BBX 7 14 1 0
BITMAP
06
06
06
06
06
06
06
06
06
06
06
4E
7C
F8
ENDCHAR
STARTCHAR C0075-K
ENCODING 75
SWIDTH 642 0
DWIDTH 12 0
BBX 9 14 2 0
BITMAP
C380
C300
C600
CC00
DC00
D800
FC00
EC00
EE00
C600
C700
C300
C380
C180
ENDCHAR
STARTCHAR C0076-L
ENCODING 76
SWIDTH 589 0
DWIDTH 11 0
BBX 8 14 2 0
BITMAP
C0
C0
C0
C0
C0
C0
C0
C0
C0
C0
C0
C0
FF
FF
ENDCHAR
STARTCHAR C0077-M
ENCODING 77
SWIDTH 910 0
DWIDTH 17 0
BBX 15 14 1 0
BITMAP
2010
1010
1018
3818
3838
3C38
3C78
366C
36CC
63CC
638C
638C
610E
E106
ENDCHAR
STARTCHAR C0078-N
ENCODING 78
SWIDTH 803 0
DWIDTH 15 0
BBX 11 14 2 0
BITMAP
8060
8060
C060
E060
F060
F860
DC60
CC60
C660
C760
C3E0
C1E0
C0E0
C060
ENDCHAR
STARTCHAR C0079-O
ENCODING 79
SWIDTH 910 0
DWIDTH 17 0
BBX 13 14 2 0
BITMAP
0F80
3FE0
38E0
6030
E038
C018
C018
C018
C018
E038
6030
38E0
3FE0
0F80
ENDCHAR
STARTCHAR C0080-P
ENCODING 80
SWIDTH 696 0
DWIDTH 13 0
BBX 10 14 2 0
BITMAP
FE00
FF00
C380
C1C0
C0C0
C0C0
C1C0
C380
FF00
FE00
C000
C000
C000
C000
ENDCHAR
STARTCHAR C0081-Q
ENCODING 81
SWIDTH 910 0
DWIDTH 17 0
BBX 13 14 2 0
BITMAP
0F80
3FE0
38E0
6030
E038
C018
C018
C018
C018
E038
6030
38E0
3FF8
0FF8
ENDCHAR
STARTCHAR C0082-R
ENCODING 82
SWIDTH 696 0
DWIDTH 13 0
BBX 10 14 2 0
BITMAP
FE00
FF00
C380
C1C0
C0C0
C0C0
C180
C380
FF00
FE00
C300
C300
C180
C1C0
ENDCHAR
STARTCHAR C0083-S
ENCODING 83
SWIDTH 642 0
DWIDTH 12 0
BBX 8 14 2 0
BITMAP
3C
7E
E7
C4
C0
E0
7C
3E
07
03
43
67
FE
3C
ENDCHAR
STARTCHAR C0084-T
ENCODING 84
SWIDTH 642 0
DWIDTH 12 0
BBX 8 14 2 0
BITMAP
FF
FF
18
18
18
18
18
18
18
18
18
18
18
18
ENDCHAR
STARTCHAR C0085-U
ENCODING 85
SWIDTH 696 0
DWIDTH 13 0
BBX 9 14 2 0
BITMAP
C180
C180
C180
C180
C180
C180
C180
C180
C180
C180
C180
E380
7F00
3C00
ENDCHAR
STARTCHAR C0086-V
ENCODING 86
SWIDTH 750 0
DWIDTH 14 0
BBX 12 14 1 0
BITMAP
E030
6060
3060
30C0
30C0
19C0
1980
0D80
0F00
0F00
0700
0600
0200
0400
ENDCHAR
STARTCHAR C0087-W
ENCODING 87
SWIDTH 1071 0
DWIDTH 20 0
BBX 17 14 1 0
BITMAP
E30180
618180
318300
30C300
30C300
19C600
19E600
0DEC00
0F3C00
0F3C00
073800
061800
021000
041000
ENDCHAR
STARTCHAR C0088-X
ENCODING 88
SWIDTH 642 0
DWIDTH 12 0
BBX 10 14 1 0
BITMAP
E1C0
6180
3300
3300
1E00
1E00
0C00
0C00
1E00
1E00
3300
3300
6180
E1C0
ENDCHAR
STARTCHAR C0089-Y
ENCODING 89
SWIDTH 750 0
DWIDTH 14 0
BBX 10 14 2 0
BITMAP
C0C0
E1C0
6180
6180
3300
3300
1E00
1E00
0C00
0C00
0C00
0C00
0C00
0C00
ENDCHAR
STARTCHAR C0090-Z
ENCODING 90
SWIDTH 642 0
DWIDTH 12 0
BBX 9 14 1 0
BITMAP
7F80
7F80
0300
0700
0600
0E00
0C00
0C00
1800
1800
3000
3000
7F80
FF80
ENDCHAR
STARTCHAR C0091-[
ENCODING 91
SWIDTH 535 0
DWIDTH 10 0
BBX 1 1 0 -1
BITMAP
00
ENDCHAR
STARTCHAR C0092-\
ENCODING 92
SWIDTH 589 0
DWIDTH 11 0
BBX 8 14 1 0
BITMAP
E0
60
30
30
38
18
18
0C
0C
0E
06
06
03
03
ENDCHAR
STARTCHAR C0093-]
ENCODING 93
SWIDTH 535 0
DWIDTH 10 0
BBX 1 1 0 -1
BITMAP
00
ENDCHAR
STARTCHAR C0094-^
ENCODING 94
SWIDTH 535 0
DWIDTH 10 0
BBX 1 1 0 -1
BITMAP
00
ENDCHAR
STARTCHAR C0095-_
ENCODING 95
SWIDTH 589 0
DWIDTH 11 0
BBX 9 2 1 -2
BITMAP
FF80
FF80
ENDCHAR
STARTCHAR C0096-`
ENCODING 96
SWIDTH 535 0
DWIDTH 10 0
BBX 1 1 0 -1
BITMAP
00
ENDCHAR
STARTCHAR C0097-a
ENCODING 97
SWIDTH 696 0
DWIDTH 13 0
BBX 10 10 1 0
BITMAP
1E00
7F80
6180
C0C0
C0C0
C0C0
C0C0
61C0
7FC0
1EC0
ENDCHAR
STARTCHAR C0098-b
ENCODING 98
SWIDTH 750 0
DWIDTH 14 0
BBX 10 17 2 0
BITMAP
C000
C000
C000
C000
C000
C000
C000
DE00
FF80
E180
C0C0
C0C0
C0C0
C0C0
6180
7F80
1E00
ENDCHAR
STARTCHAR C0099-c
ENCODING 99
SWIDTH 642 0
DWIDTH 12 0
BBX 9 10 1 0
BITMAP
1E00
7F80
6100
C000
C000
C000
C000
6100
7F80
1E00
ENDCHAR
STARTCHAR C0100-d
ENCODING 100
SWIDTH 750 0
DWIDTH 14 0
BBX 10 17 2 0
BITMAP
00C0
00C0
00C0
00C0
00C0
00C0
00C0
1EC0
7FC0
61C0
C0C0
C0C0
C0C0
C0C0
6180
7F80
1E00
ENDCHAR
STARTCHAR C0101-e
ENCODING 101
SWIDTH 696 0
DWIDTH 13 0
BBX 11 10 1 0
BITMAP
1F00
3F80
71C0
60C0
7FC0
FFE0
6000
7000
3FC0
1F00
ENDCHAR
STARTCHAR C0102-f
ENCODING 102
SWIDTH 428 0
DWIDTH 8 0
BBX 5 17 1 0
BITMAP
18
38
70
60
60
60
60
60
F8
F8
60
60
60
60
60
60
60
ENDCHAR
STARTCHAR C0103-g
ENCODING 103
SWIDTH 803 0
DWIDTH 15 0
BBX 12 16 1 -6
BITMAP
3FC0
7FC0
E1C0
C0C0
C0C0
C0C0
6180
FF80
FE00
C000
FFE0
3FF0
0030
0030
FFF0
7FE0
ENDCHAR
STARTCHAR C0104-h
ENCODING 104
SWIDTH 642 0
DWIDTH 12 0
BBX 8 17 2 0
BITMAP
C0
C0
C0
C0
C0
C0
C0
FC
FE
E7
C3
C3
C3
C3
C3
C3
C3
ENDCHAR
STARTCHAR C0105-i
ENCODING 105
SWIDTH 321 0
DWIDTH 6 0
BBX 2 13 2 0
BITMAP
C0
C0
00
C0
C0
C0
C0
C0
C0
C0
C0
C0
C0
ENDCHAR
STARTCHAR C0106-j
ENCODING 106
SWIDTH 321 0
DWIDTH 6 0
BBX 2 19 2 -6
BITMAP
C0
C0
00
C0
C0
C0
C0
C0
C0
C0
C0
C0
C0
C0
C0
C0
C0
C0
C0
ENDCHAR
STARTCHAR C0107-k
ENCODING 107
SWIDTH 535 0
DWIDTH 10 0
BBX 7 16 1 0
BITMAP
C0
C0
C0
C0
C0
C0
CC
DC
F8
F0
E0
F0
F8
D8
CC
C6
ENDCHAR
STARTCHAR C0108-l
ENCODING 108
SWIDTH 321 0
DWIDTH 6 0
BBX 2 17 2 0
BITMAP
C0
C0
C0
C0
C0
C0
C0
C0
C0
C0
C0
C0
C0
C0
C0
C0
C0
ENDCHAR
STARTCHAR C0109-m
ENCODING 109
SWIDTH 964 0
DWIDTH 18 0
BBX 14 10 2 0
BITMAP
FCF0
FFF8
E79C
C30C
C30C
C30C
C30C
C30C
C30C
C30C
ENDCHAR
STARTCHAR C0110-n
ENCODING 110
SWIDTH 642 0
DWIDTH 12 0
BBX 8 10 2 0
BITMAP
FC
FE
E7
C3
C3
C3
C3
C3
C3
C3
ENDCHAR
STARTCHAR C0111-o
ENCODING 111
SWIDTH 750 0
DWIDTH 14 0
BBX 10 10 2 0
BITMAP
1E00
7F80
6180
C0C0
C0C0
C0C0
C0C0
6180
7F80
1E00
ENDCHAR
STARTCHAR C0112-p
ENCODING 112
SWIDTH 750 0
DWIDTH 14 0
BBX 10 17 2 -7
BITMAP
1E00
7F80
6180
C0C0
C0C0
C0C0
C0C0
E180
FF80
DE00
C000
C000
C000
C000
C000
C000
C000
ENDCHAR
STARTCHAR C0113-q
ENCODING 113
SWIDTH 750 0
DWIDTH 14 0
BBX 10 17 2 -7
BITMAP
1E00
7F80
6180
C0C0
C0C0
C0C0
C0C0
61C0
7FC0
1EC0
00C0
00C0
00C0
00C0
00C0
00C0
00C0
ENDCHAR
STARTCHAR C0114-r
ENCODING 114
SWIDTH 535 0
DWIDTH 10 0
BBX 8 10 1 0
BITMAP
FC
FF
E2
C0
C0
C0
C0
C0
C0
C0
ENDCHAR
STARTCHAR C0115-s
ENCODING 115
SWIDTH 482 0
DWIDTH 9 0
BBX 7 10 1 0
BITMAP
38
7C
70
60
78
1C
0E
4E
7C
38
ENDCHAR
STARTCHAR C0116-t
ENCODING 116
SWIDTH 482 0
DWIDTH 9 0
BBX 6 17 1 0
BITMAP
30
30
30
30
FC
FC
30
30
30
30
30
30
30
30
30
30
30
ENDCHAR
STARTCHAR C0117-u
ENCODING 117
SWIDTH 642 0
DWIDTH 12 0
BBX 8 10 2 0
BITMAP
C3
C3
C3
C3
C3
C3
C3
E7
7E
3C
ENDCHAR
STARTCHAR C0118-v
ENCODING 118
SWIDTH 642 0
DWIDTH 12 0
BBX 9 10 1 0
BITMAP
E180
6380
3300
3300
3E00
1E00
1C00
0C00
0C00
0800
ENDCHAR
STARTCHAR C0119-w
ENCODING 119
SWIDTH 857 0
DWIDTH 16 0
BBX 14 10 1 0
BITMAP
E21C
6118
3318
33B0
3FB0
1FE0
1CE0
0CC0
0C40
0840
ENDCHAR
STARTCHAR C0120-x
ENCODING 120
SWIDTH 642 0
DWIDTH 12 0
BBX 10 10 1 0
BITMAP
E1C0
3380
3B00
1E00
0E00
0E00
1E00
3B00
3380
61C0
ENDCHAR
STARTCHAR C0121-y
ENCODING 121
SWIDTH 750 0
DWIDTH 14 0
BBX 11 16 1 -6
BITMAP
E060
60C0
30C0
3180
1980
1B00
1F00
0E00
0E00
0C00
0C00
1800
1800
3000
3000
6000
ENDCHAR
STARTCHAR C0122-z
ENCODING 122
SWIDTH 642 0
DWIDTH 12 0
BBX 9 10 1 0
BITMAP
FF80
FF00
0600
0600
0C00
1C00
1800
3000
7F80
FF80
ENDCHAR
STARTCHAR C0123-{
ENCODING 123
SWIDTH 535 0
DWIDTH 10 0
BBX 1 1 0 -1
BITMAP
00
ENDCHAR
STARTCHAR C0124-|
ENCODING 124
SWIDTH 267 0
DWIDTH 5 0
BBX 2 14 2 0
BITMAP
C0
C0
C0
C0
C0
C0
C0
C0
C0
C0
C0
C0
C0
C0
ENDCHAR
STARTCHAR C0125-}
ENCODING 125
SWIDTH 535 0
DWIDTH 10 0
BBX 1 1 0 -1
BITMAP
00
ENDCHAR
STARTCHAR C0126-~
ENCODING 126
SWIDTH 535 0
DWIDTH 10 0
BBX 1 1 0 -1
BITMAP
00
ENDCHAR
STARTCHAR C0127
ENCODING 127
SWIDTH 535 0
DWIDTH 10 0
BBX 1 1 0 -1
BITMAP
00
ENDCHAR
STARTCHAR C0128
ENCODING 128
SWIDTH 535 0
DWIDTH 10 0
BBX 1 1 0 -1
BITMAP
00
ENDCHAR
STARTCHAR C0129
ENCODING 129
SWIDTH 535 0
DWIDTH 10 0
BBX 1 1 0 -1
BITMAP
00
ENDCHAR
STARTCHAR C0130
ENCODING 130
SWIDTH 535 0
DWIDTH 10 0
BBX 1 1 0 -1
BITMAP
00
ENDCHAR
STARTCHAR C0131
ENCODING 131
SWIDTH 535 0
DWIDTH 10 0
BBX 1 1 0 -1
BITMAP
00
ENDCHAR
STARTCHAR C0132
ENCODING 132
SWIDTH 535 0
DWIDTH 10 0
BBX 1 1 0 -1
BITMAP
00
ENDCHAR
STARTCHAR C0133
ENCODING 133
SWIDTH 535 0
DWIDTH 10 0
BBX 1 1 0 -1
BITMAP
00
ENDCHAR
STARTCHAR C0134
ENCODING 134
SWIDTH 535 0
DWIDTH 10 0
BBX 1 1 0 -1
BITMAP
00
ENDCHAR
STARTCHAR C0135
ENCODING 135
SWIDTH 535 0
DWIDTH 10 0
BBX 1 1 0 -1
BITMAP
00
ENDCHAR
STARTCHAR C0136
ENCODING 136
SWIDTH 535 0
DWIDTH 10 0
BBX 1 1 0 -1
BITMAP
00
ENDCHAR
STARTCHAR C0137
ENCODING 137
SWIDTH 535 0
DWIDTH 10 0
BBX 1 1 0 -1
BITMAP
00
ENDCHAR
STARTCHAR C0138
ENCODING 138
SWIDTH 535 0
DWIDTH 10 0
BBX 1 1 0 -1
BITMAP
00
ENDCHAR
STARTCHAR C0139
ENCODING 139
SWIDTH 535 0
DWIDTH 10 0
BBX 1 1 0 -1
BITMAP
00
ENDCHAR
STARTCHAR C0140
ENCODING 140
SWIDTH 535 0
DWIDTH 10 0
BBX 1 1 0 -1
BITMAP
00
ENDCHAR
STARTCHAR C0141
ENCODING 141
SWIDTH 535 0
DWIDTH 10 0
BBX 1 1 0 -1
BITMAP
00
ENDCHAR
STARTCHAR C0142
ENCODING 142
SWIDTH 535 0
DWIDTH 10 0
BBX 1 1 0 -1
BITMAP
00
ENDCHAR
STARTCHAR C0143
ENCODING 143
SWIDTH 535 0
DWIDTH 10 0
BBX 1 1 0 -1
BITMAP
00
ENDCHAR
STARTCHAR C0144
ENCODING 144
SWIDTH 535 0
DWIDTH 10 0
BBX 1 1 0 -1
BITMAP
00
ENDCHAR
STARTCHAR C0145
ENCODING 145
SWIDTH 535 0
DWIDTH 10 0
BBX 1 1 0 -1
BITMAP
00
ENDCHAR
STARTCHAR C0146
ENCODING 146
SWIDTH 535 0
DWIDTH 10 0
BBX 1 1 0 -1
BITMAP
00
ENDCHAR
STARTCHAR C0147
ENCODING 147
SWIDTH 535 0
DWIDTH 10 0
BBX 1 1 0 -1
BITMAP
00
ENDCHAR
STARTCHAR C0148
ENCODING 148
SWIDTH 535 0
DWIDTH 10 0
BBX 1 1 0 -1
BITMAP
00
ENDCHAR
STARTCHAR C0149
ENCODING 149
SWIDTH 535 0
DWIDTH 10 0
BBX 1 1 0 -1
BITMAP
00
ENDCHAR
STARTCHAR C0150
ENCODING 150
SWIDTH 428 0
DWIDTH 8 0
BBX 6 2 1 4
BITMAP
FC
FC
ENDCHAR
STARTCHAR C0151
ENCODING 151
SWIDTH 589 0
DWIDTH 11 0
BBX 9 2 1 4
BITMAP
FF80
FF80
ENDCHAR
STARTCHAR C0152
ENCODING 152
SWIDTH 535 0
DWIDTH 10 0
BBX 1 1 0 -1
BITMAP
00
ENDCHAR
STARTCHAR C0153
ENCODING 153
SWIDTH 535 0
DWIDTH 10 0
BBX 1 1 0 -1
BITMAP
00
ENDCHAR
STARTCHAR C0154
ENCODING 154
SWIDTH 535 0
DWIDTH 10 0
BBX 1 1 0 -1
BITMAP
00
ENDCHAR
STARTCHAR C0155
ENCODING 155
SWIDTH 535 0
DWIDTH 10 0
BBX 1 1 0 -1
BITMAP
00
ENDCHAR
STARTCHAR C0156
ENCODING 156
SWIDTH 535 0
DWIDTH 10 0
BBX 1 1 0 -1
BITMAP
00
ENDCHAR
STARTCHAR C0157
ENCODING 157
SWIDTH 535 0
DWIDTH 10 0
BBX 1 1 0 -1
BITMAP
00
ENDCHAR
STARTCHAR C0158
ENCODING 158
SWIDTH 535 0
DWIDTH 10 0
BBX 1 1 0 -1
BITMAP
00
ENDCHAR
STARTCHAR C0159
ENCODING 159
SWIDTH 535 0
DWIDTH 10 0
BBX 1 1 0 -1
BITMAP
00
ENDCHAR
STARTCHAR C0160
ENCODING 160
SWIDTH 535 0
DWIDTH 10 0
BBX 1 1 0 -1
BITMAP
00
ENDCHAR
STARTCHAR C0161
ENCODING 161
SWIDTH 267 0
DWIDTH 5 0
BBX 2 14 2 0
BITMAP
C0
C0
00
C0
C0
C0
C0
C0
C0
C0
C0
C0
C0
C0
ENDCHAR
STARTCHAR C0162
ENCODING 162
SWIDTH 535 0
DWIDTH 10 0
BBX 1 1 0 -1
BITMAP
00
ENDCHAR
STARTCHAR C0163
ENCODING 163
SWIDTH 535 0
DWIDTH 10 0
BBX 1 1 0 -1
BITMAP
00
ENDCHAR
STARTCHAR C0164
ENCODING 164
SWIDTH 535 0
DWIDTH 10 0
BBX 1 1 0 -1
BITMAP
00
ENDCHAR
STARTCHAR C0165
ENCODING 165
SWIDTH 535 0
DWIDTH 10 0
BBX 1 1 0 -1
BITMAP
00
ENDCHAR
STARTCHAR C0166
ENCODING 166
SWIDTH 535 0
DWIDTH 10 0
BBX 1 1 0 -1
BITMAP
00
ENDCHAR
STARTCHAR C0167
ENCODING 167
SWIDTH 535 0
DWIDTH 10 0
BBX 1 1 0 -1
BITMAP
00
ENDCHAR
STARTCHAR C0168
ENCODING 168
SWIDTH 535 0
DWIDTH 10 0
BBX 1 1 0 -1
BITMAP
00
ENDCHAR
STARTCHAR C0169
ENCODING 169
SWIDTH 535 0
DWIDTH 10 0
BBX 1 1 0 -1
BITMAP
00
ENDCHAR
STARTCHAR C0170
ENCODING 170
SWIDTH 535 0
DWIDTH 10 0
BBX 1 1 0 -1
BITMAP
00
ENDCHAR
STARTCHAR C0171
ENCODING 171
SWIDTH 535 0
DWIDTH 10 0
BBX 1 1 0 -1
BITMAP
00
ENDCHAR
STARTCHAR C0172
ENCODING 172
SWIDTH 535 0
DWIDTH 10 0
BBX 1 1 0 -1
BITMAP
00
ENDCHAR
STARTCHAR C0173
ENCODING 173
SWIDTH 535 0
DWIDTH 10 0
BBX 1 1 0 -1
BITMAP
00
ENDCHAR
STARTCHAR C0174
ENCODING 174
SWIDTH 535 0
DWIDTH 10 0
BBX 1 1 0 -1
BITMAP
00
ENDCHAR
STARTCHAR C0175
ENCODING 175
SWIDTH 535 0
DWIDTH 10 0
BBX 1 1 0 -1
BITMAP
00
ENDCHAR
STARTCHAR C0176
ENCODING 176
SWIDTH 535 0
DWIDTH 10 0
BBX 1 1 0 -1
BITMAP
00
ENDCHAR
STARTCHAR C0177
ENCODING 177
SWIDTH 535 0
DWIDTH 10 0
BBX 1 1 0 -1
BITMAP
00
ENDCHAR
STARTCHAR C0178
ENCODING 178
SWIDTH 535 0
DWIDTH 10 0
BBX 1 1 0 -1
BITMAP
00
ENDCHAR
STARTCHAR C0179
ENCODING 179
SWIDTH 535 0
DWIDTH 10 0
BBX 1 1 0 -1
BITMAP
00
ENDCHAR
STARTCHAR C0180
ENCODING 180
SWIDTH 535 0
DWIDTH 10 0
BBX 1 1 0 -1
BITMAP
00
ENDCHAR
STARTCHAR C0181
ENCODING 181
SWIDTH 535 0
DWIDTH 10 0
BBX 1 1 0 -1
BITMAP
00
ENDCHAR
STARTCHAR C0182
ENCODING 182
SWIDTH 535 0
DWIDTH 10 0
BBX 1 1 0 -1
BITMAP
00
ENDCHAR
STARTCHAR C0183
ENCODING 183
SWIDTH 535 0
DWIDTH 10 0
BBX 1 1 0 -1
BITMAP
00
ENDCHAR
STARTCHAR C0184
ENCODING 184
SWIDTH 535 0
DWIDTH 10 0
BBX 1 1 0 -1
BITMAP
00
ENDCHAR
STARTCHAR C0185
ENCODING 185
SWIDTH 535 0
DWIDTH 10 0
BBX 1 1 0 -1
BITMAP
00
ENDCHAR
STARTCHAR C0186
ENCODING 186
SWIDTH 535 0
DWIDTH 10 0
BBX 1 1 0 -1
BITMAP
00
ENDCHAR
STARTCHAR C0187
ENCODING 187
SWIDTH 535 0
DWIDTH 10 0
BBX 1 1 0 -1
BITMAP
00
ENDCHAR
STARTCHAR C0188
ENCODING 188
SWIDTH 535 0
DWIDTH 10 0
BBX 1 1 0 -1
BITMAP
00
ENDCHAR
STARTCHAR C0189
ENCODING 189
SWIDTH 535 0
DWIDTH 10 0
BBX 1 1 0 -1
BITMAP
00
ENDCHAR
STARTCHAR C0190
ENCODING 190
SWIDTH 535 0
DWIDTH 10 0
BBX 1 1 0 -1
BITMAP
00
ENDCHAR
STARTCHAR C0191
ENCODING 191
SWIDTH 642 0
DWIDTH 12 0
BBX 9 14 2 0
BITMAP
1800
1800
0000
1800
1800
1800
3800
6000
C000
C000
C200
E300
7F80
3E00
ENDCHAR
STARTCHAR C0192
ENCODING 192
SWIDTH 535 0
DWIDTH 10 0
BBX 1 1 0 -1
BITMAP
00
ENDCHAR
STARTCHAR C0193
ENCODING 193
SWIDTH 535 0
DWIDTH 10 0
BBX 1 1 0 -1
BITMAP
00
ENDCHAR
STARTCHAR C0194
ENCODING 194
SWIDTH 535 0
DWIDTH 10 0
BBX 1 1 0 -1
BITMAP
00
ENDCHAR
STARTCHAR C0195
ENCODING 195
SWIDTH 535 0
DWIDTH 10 0
BBX 1 1 0 -1
BITMAP
00
ENDCHAR
STARTCHAR C0196
ENCODING 196
SWIDTH 535 0
DWIDTH 10 0
BBX 1 1 0 -1
BITMAP
00
ENDCHAR
STARTCHAR C0197
ENCODING 197
SWIDTH 535 0
DWIDTH 10 0
BBX 1 1 0 -1
BITMAP
00
ENDCHAR
STARTCHAR C0198
ENCODING 198
SWIDTH 535 0
DWIDTH 10 0
BBX 1 1 0 -1
BITMAP
00
ENDCHAR
STARTCHAR C0199
ENCODING 199
SWIDTH 535 0
DWIDTH 10 0
BBX 1 1 0 -1
BITMAP
00
ENDCHAR
STARTCHAR C0200
ENCODING 200
SWIDTH 535 0
DWIDTH 10 0
BBX 1 1 0 -1
BITMAP
00
ENDCHAR
STARTCHAR C0201
ENCODING 201
SWIDTH 535 0
DWIDTH 10 0
BBX 1 1 0 -1
BITMAP
00
ENDCHAR
STARTCHAR C0202
ENCODING 202
SWIDTH 535 0
DWIDTH 10 0
BBX 1 1 0 -1
BITMAP
00
ENDCHAR
STARTCHAR C0203
ENCODING 203
SWIDTH 535 0
DWIDTH 10 0
BBX 1 1 0 -1
BITMAP
00
ENDCHAR
STARTCHAR C0204
ENCODING 204
SWIDTH 535 0
DWIDTH 10 0
BBX 1 1 0 -1
BITMAP
00
ENDCHAR
STARTCHAR C0205
ENCODING 205
SWIDTH 535 0
DWIDTH 10 0
BBX 1 1 0 -1
BITMAP
00
ENDCHAR
STARTCHAR C0206
ENCODING 206
SWIDTH 535 0
DWIDTH 10 0
BBX 1 1 0 -1
BITMAP
00
ENDCHAR
STARTCHAR C0207
ENCODING 207
SWIDTH 535 0
DWIDTH 10 0
BBX 1 1 0 -1
BITMAP
00
ENDCHAR
STARTCHAR C0208
ENCODING 208
SWIDTH 535 0
DWIDTH 10 0
BBX 1 1 0 -1
BITMAP
00
ENDCHAR
STARTCHAR C0209
ENCODING 209
SWIDTH 535 0
DWIDTH 10 0
BBX 1 1 0 -1
BITMAP
00
ENDCHAR
STARTCHAR C0210
ENCODING 210
SWIDTH 535 0
DWIDTH 10 0
BBX 1 1 0 -1
BITMAP
00
ENDCHAR
STARTCHAR C0211
ENCODING 211
SWIDTH 535 0
DWIDTH 10 0
BBX 1 1 0 -1
BITMAP
00
ENDCHAR
STARTCHAR C0212
ENCODING 212
SWIDTH 535 0
DWIDTH 10 0
BBX 1 1 0 -1
BITMAP
00
ENDCHAR
STARTCHAR C0213
ENCODING 213
SWIDTH 535 0
DWIDTH 10 0
BBX 1 1 0 -1
BITMAP
00
ENDCHAR
STARTCHAR C0214
ENCODING 214
SWIDTH 535 0
DWIDTH 10 0
BBX 1 1 0 -1
BITMAP
00
ENDCHAR
STARTCHAR C0215
ENCODING 215
SWIDTH 535 0
DWIDTH 10 0
BBX 1 1 0 -1
BITMAP
00
ENDCHAR
STARTCHAR C0216
ENCODING 216
SWIDTH 535 0
DWIDTH 10 0
BBX 1 1 0 -1
BITMAP
00
ENDCHAR
STARTCHAR C0217
ENCODING 217
SWIDTH 535 0
DWIDTH 10 0
BBX 1 1 0 -1
BITMAP
00
ENDCHAR
STARTCHAR C0218
ENCODING 218
SWIDTH 535 0
DWIDTH 10 0
BBX 1 1 0 -1
BITMAP
00
ENDCHAR
STARTCHAR C0219
ENCODING 219
SWIDTH 535 0
DWIDTH 10 0
BBX 1 1 0 -1
BITMAP
00
ENDCHAR
STARTCHAR C0220
ENCODING 220
SWIDTH 535 0
DWIDTH 10 0
BBX 1 1 0 -1
BITMAP
00
ENDCHAR
STARTCHAR C0221
ENCODING 221
SWIDTH 535 0
DWIDTH 10 0
BBX 1 1 0 -1
BITMAP
00
ENDCHAR
STARTCHAR C0222
ENCODING 222
SWIDTH 535 0
DWIDTH 10 0
BBX 1 1 0 -1
BITMAP
00
ENDCHAR
STARTCHAR C0223
ENCODING 223
SWIDTH 535 0
DWIDTH 10 0
BBX 1 1 0 -1
BITMAP
00
ENDCHAR
STARTCHAR C0224
ENCODING 224
SWIDTH 535 0
DWIDTH 10 0
BBX 1 1 0 -1
BITMAP
00
ENDCHAR
STARTCHAR C0225
ENCODING 225
SWIDTH 535 0
DWIDTH 10 0
BBX 1 1 0 -1
BITMAP
00
ENDCHAR
STARTCHAR C0226
ENCODING 226
SWIDTH 535 0
DWIDTH 10 0
BBX 1 1 0 -1
BITMAP
00
ENDCHAR
STARTCHAR C0227
ENCODING 227
SWIDTH 535 0
DWIDTH 10 0
BBX 1 1 0 -1
BITMAP
00
ENDCHAR
STARTCHAR C0228
ENCODING 228
SWIDTH 535 0
DWIDTH 10 0
BBX 1 1 0 -1
BITMAP
00
ENDCHAR
STARTCHAR C0229
ENCODING 229
SWIDTH 535 0
DWIDTH 10 0
BBX 1 1 0 -1
BITMAP
00
ENDCHAR
STARTCHAR C0230
ENCODING 230
SWIDTH 535 0
DWIDTH 10 0
BBX 1 1 0 -1
BITMAP
00
ENDCHAR
STARTCHAR C0231
ENCODING 231
SWIDTH 535 0
DWIDTH 10 0
BBX 1 1 0 -1
BITMAP
00
ENDCHAR
STARTCHAR C0232
ENCODING 232
SWIDTH 535 0
DWIDTH 10 0
BBX 1 1 0 -1
BITMAP
00
ENDCHAR
STARTCHAR C0233
ENCODING 233
SWIDTH 535 0
DWIDTH 10 0
BBX 1 1 0 -1
BITMAP
00
ENDCHAR
STARTCHAR C0234
ENCODING 234
SWIDTH 535 0
DWIDTH 10 0
BBX 1 1 0 -1
BITMAP
00
ENDCHAR
STARTCHAR C0235
ENCODING 235
SWIDTH 535 0
DWIDTH 10 0
BBX 1 1 0 -1
BITMAP
00
ENDCHAR
STARTCHAR C0236
ENCODING 236
SWIDTH 535 0
DWIDTH 10 0
BBX 1 1 0 -1
BITMAP
00
ENDCHAR
STARTCHAR C0237
ENCODING 237
SWIDTH 535 0
DWIDTH 10 0
BBX 1 1 0 -1
BITMAP
00
ENDCHAR
STARTCHAR C0238
ENCODING 238
SWIDTH 535 0
DWIDTH 10 0
BBX 1 1 0 -1
BITMAP
00
ENDCHAR
STARTCHAR C0239
ENCODING 239
SWIDTH 535 0
DWIDTH 10 0
BBX 1 1 0 -1
BITMAP
00
ENDCHAR
STARTCHAR C0240
ENCODING 240
SWIDTH 535 0
DWIDTH 10 0
BBX 1 1 0 -1
BITMAP
00
ENDCHAR
STARTCHAR C0241
ENCODING 241
SWIDTH 535 0
DWIDTH 10 0
BBX 1 1 0 -1
BITMAP
00
ENDCHAR
STARTCHAR C0242
ENCODING 242
SWIDTH 535 0
DWIDTH 10 0
BBX 1 1 0 -1
BITMAP
00
ENDCHAR
STARTCHAR C0243
ENCODING 243
SWIDTH 535 0
DWIDTH 10 0
BBX 1 1 0 -1
BITMAP
00
ENDCHAR
STARTCHAR C0244
ENCODING 244
SWIDTH 535 0
DWIDTH 10 0
BBX 1 1 0 -1
BITMAP
00
ENDCHAR
STARTCHAR C0245
ENCODING 245
SWIDTH 535 0
DWIDTH 10 0
BBX 1 1 0 -1
BITMAP
00
ENDCHAR
STARTCHAR C0246
ENCODING 246
SWIDTH 535 0
DWIDTH 10 0
BBX 1 1 0 -1
BITMAP
00
ENDCHAR
STARTCHAR C0247
ENCODING 247
SWIDTH 535 0
DWIDTH 10 0
BBX 1 1 0 -1
BITMAP
00
ENDCHAR
STARTCHAR C0248
ENCODING 248
SWIDTH 535 0
DWIDTH 10 0
BBX 1 1 0 -1
BITMAP
00
ENDCHAR
STARTCHAR C0249
ENCODING 249
SWIDTH 535 0
DWIDTH 10 0
BBX 1 1 0 -1
BITMAP
00
ENDCHAR
STARTCHAR C0250
ENCODING 250
SWIDTH 535 0
DWIDTH 10 0
BBX 1 1 0 -1
BITMAP
00
ENDCHAR
STARTCHAR C0251
ENCODING 251
SWIDTH 535 0
DWIDTH 10 0
BBX 1 1 0 -1
BITMAP
00
ENDCHAR
STARTCHAR C0252
ENCODING 252
SWIDTH 535 0
DWIDTH 10 0
BBX 1 1 0 -1
BITMAP
00
ENDCHAR
STARTCHAR C0253
ENCODING 253
SWIDTH 535 0
DWIDTH 10 0
BBX 1 1 0 -1
BITMAP
00
ENDCHAR
STARTCHAR C0254
ENCODING 254
SWIDTH 535 0
DWIDTH 10 0
BBX 1 1 0 -1
BITMAP
00
ENDCHAR
STARTCHAR C0255
ENCODING 255
SWIDTH 857 0
DWIDTH 16 0
BBX 1 1 0 -1
BITMAP
00
ENDCHAR
ENDFONT

